<?xml version="1.0" encoding="utf-8"?>
<!-- Generator: Adobe Illustrator 24.3.0, SVG Export Plug-In . SVG Version: 6.00 Build 0)  -->
<svg version="1.1" xmlns="http://www.w3.org/2000/svg" xmlns:xlink="http://www.w3.org/1999/xlink" x="0px" y="0px"
	 viewBox="0 0 1080 1080" style="enable-background:new 0 0 1080 1080;" xml:space="preserve">
<style type="text/css">
	.st0{fill:#218CBE;stroke:#BCBCBC;stroke-width:4;}
	.st1{fill:#FFFFFF;}
	.st2{fill:#218CBE;}
</style>
<g id="LISADCV">
	<g>
		<path d="M46.46,1052.08v-56.8h7.76v46.88c0,1.22,0.08,2,0.24,2.32c0.16,0.32,0.69,0.48,1.6,0.48c0.64,0,1.09,0,1.36,0h15.84v7.12
			H46.46z"/>
		<path d="M84.78,1036.66v15.5h-7.04v-38.24c0-5.33,1.76-9.84,5.28-13.52c3.52-3.68,7.87-5.52,13.04-5.52
			c5.07,0,9.41,1.87,13.04,5.6c3.63,3.73,5.44,8.19,5.44,13.36v38.32h-6.88v-14.08c0-1.01,0-1.76,0-2.24c0-0.64-0.05-1.2-0.16-1.68
			c-0.11-0.48-0.36-0.88-0.76-1.2c-0.4-0.32-1.03-0.48-1.88-0.48c-0.69,0-1.23,0-1.6,0H88.38c-0.75,0-1.25,0.03-1.52,0.08
			c-0.43,0.11-0.88,0.36-1.36,0.76c-0.48,0.4-0.72,1.17-0.72,2.29C84.78,1036.09,84.78,1036.44,84.78,1036.66z M107.34,1021.28
			v-7.84c0-3.31-1.04-6.09-3.13-8.36c-2.09-2.27-4.84-3.4-8.27-3.4c-3.27,0-5.9,1.28-7.91,3.84c-2.01,2.56-3.01,5.57-3.01,9.04v7.12
			c0,0.69,0,1.2,0,1.52c0,0.75,0.19,1.35,0.56,1.8c0.37,0.45,0.85,0.75,1.44,0.88c0.58,0.13,1.3,0.2,2.15,0.2h13.47
			c0.53,0,0.9,0,1.12,0c0.8,0,1.3-0.03,1.52-0.08c0.48-0.11,0.9-0.37,1.27-0.8c0.21-0.21,0.4-0.51,0.56-0.88
			c0.16-0.37,0.24-0.85,0.24-1.44C107.34,1022.19,107.34,1021.65,107.34,1021.28z"/>
		<path d="M156.86,1025.28h7.2v23.28c-1.28,1.01-2.83,1.87-4.64,2.56c-2.88,1.07-6.13,1.6-9.76,1.6c-8,0-14.85-2.86-20.56-8.57
			c-5.71-5.71-8.56-12.6-8.56-20.67c0-7.85,2.84-14.51,8.52-19.99c5.68-5.47,12.52-8.21,20.52-8.21c1.81,0,3.28,0.09,4.4,0.28
			c1.12,0.19,2.56,0.58,4.32,1.17v6.79c-1.39-0.62-2.79-1.06-4.2-1.34c-1.41-0.28-2.92-0.42-4.52-0.42
			c-6.08,0-11.29,2.15-15.64,6.45c-4.35,4.3-6.52,9.47-6.52,15.51c0,6.25,2.04,11.54,6.12,15.87s9.43,6.49,16.04,6.49
			c2.03,0,3.97-0.19,5.84-0.56c0.59-0.16,0.97-0.44,1.16-0.84c0.19-0.4,0.28-0.95,0.28-1.64c0-0.48,0-0.85,0-1.12V1025.28z"/>
		<path d="M177.58,1036.66v15.5h-7.04v-38.24c0-5.33,1.76-9.84,5.28-13.52c3.52-3.68,7.87-5.52,13.04-5.52
			c5.07,0,9.41,1.87,13.04,5.6c3.63,3.73,5.44,8.19,5.44,13.36v38.32h-6.88v-14.08c0-1.01,0-1.76,0-2.24c0-0.64-0.05-1.2-0.16-1.68
			c-0.11-0.48-0.36-0.88-0.76-1.2c-0.4-0.32-1.03-0.48-1.88-0.48c-0.69,0-1.23,0-1.6,0h-14.88c-0.75,0-1.25,0.03-1.52,0.08
			c-0.43,0.11-0.88,0.36-1.36,0.76c-0.48,0.4-0.72,1.17-0.72,2.29C177.58,1036.09,177.58,1036.44,177.58,1036.66z M200.14,1021.28
			v-7.84c0-3.31-1.04-6.09-3.13-8.36c-2.09-2.27-4.84-3.4-8.27-3.4c-3.27,0-5.9,1.28-7.91,3.84c-2.01,2.56-3.01,5.57-3.01,9.04v7.12
			c0,0.69,0,1.2,0,1.52c0,0.75,0.19,1.35,0.56,1.8c0.37,0.45,0.85,0.75,1.44,0.88c0.58,0.13,1.3,0.2,2.15,0.2h13.47
			c0.53,0,0.9,0,1.12,0c0.8,0,1.3-0.03,1.52-0.08c0.48-0.11,0.9-0.37,1.27-0.8c0.21-0.21,0.4-0.51,0.56-0.88
			c0.16-0.37,0.24-0.85,0.24-1.44C200.14,1022.19,200.14,1021.65,200.14,1021.28z"/>
		<path d="M215.18,1052.08v-56.8h7.76v46.88c0,1.22,0.08,2,0.24,2.32c0.16,0.32,0.69,0.48,1.6,0.48c0.64,0,1.09,0,1.36,0h15.84v7.12
			H215.18z"/>
		<path d="M254.14,1014.6v37.48h-7.6v-37.79c0-5.29,1.39-9.79,4.16-13.48c2.99-4.01,7.01-6.02,12.08-6.02
			c3.57,0,6.48,0.74,8.72,2.21c1.81,1.58,3.63,3.17,5.44,4.75c1.49-1.81,3.31-3.39,5.44-4.72c2.4-1.49,5.41-2.24,9.04-2.24
			c4.8,0,8.64,1.88,11.52,5.64c2.88,3.76,4.32,8.49,4.32,14.2v37.44h-7.6v-37.54c0-3.43-0.69-6.4-2.08-8.92
			c-1.6-2.89-3.81-4.34-6.64-4.34c-4.05,0-6.93,1.29-8.64,3.86c-1.33,2.04-2,4.93-2,8.68v38.26h-7.36v-38.04
			c0-4.97-0.91-8.43-2.72-10.35c-1.55-1.6-3.79-2.41-6.72-2.41c-3.63,0-6.19,1.42-7.68,4.25
			C254.7,1007.67,254.14,1010.7,254.14,1014.6z"/>
		<path d="M333.1,1052.16v-57.28h7.76v57.28H333.1z"/>
		<path d="M355.34,1052.24h-6.32v-56.92l28.77,33.19c0.79,0.96,1.48,1.68,2.06,2.16c0.84,0.69,1.42,0.93,1.74,0.72
			c0.26-0.16,0.45-0.73,0.55-1.72c0.1-0.99,0.16-2.01,0.16-3.08c0-1.12,0-1.78,0-2v-29.24h6.8v57.26l-29.28-33.9
			c-0.8-1.01-1.25-1.57-1.36-1.68c-0.64-0.59-1.28-0.77-1.92-0.56c-0.8,0.27-1.2,1.01-1.2,2.24c0,0.85,0,1.49,0,1.92V1052.24z"/>
		<path d="M396.62,1052.16v-57.28c0.59,0,1.01,0,1.28,0c0.53,0,0.93,0,1.2,0c0.48,0,0.83,0,1.04,0c1.01,0,1.85,0,2.52,0
			c0.67,0,1.29,0,1.88,0c8.32,0,15.44,2.59,21.36,7.77c6.19,5.45,9.28,12.26,9.28,20.43c0,9.93-3.52,17.57-10.56,22.91
			c-5.39,4.11-11.36,6.17-17.92,6.17H396.62z M404.22,1042.79c0,1.82,1.25,2.73,3.76,2.73c4.11,0,8.27-1.92,12.48-5.77
			c4.96-4.54,7.44-10.12,7.44-16.75c0-5.98-2.59-11.14-7.76-15.47c-4.43-3.74-8.67-5.61-12.72-5.61c-2.13,0-3.2,0.75-3.2,2.24
			V1042.79z"/>
		<path d="M439.9,1030.32V994.8h7.12v35.52c0,4.32,0.88,7.81,2.64,10.48c2.13,3.2,5.33,4.8,9.6,4.8c4.59,0,7.84-1.63,9.76-4.88
			c1.44-2.45,2.16-5.97,2.16-10.56V994.8h7.12v35.36c0,6.72-1.44,12-4.32,15.84c-3.31,4.43-8.29,6.64-14.96,6.64
			c-6.03,0-10.77-2.16-14.24-6.48C441.52,1042.11,439.9,1036.83,439.9,1030.32z"/>
		<path d="M505.33,1006.4c-1.12-1.97-2.15-3.28-3.08-3.92c-0.93-0.64-2.25-0.96-3.96-0.96c-2.08,0-3.84,0.83-5.28,2.48
			c-1.44,1.65-2.16,3.55-2.16,5.68c0,2.61,2.16,4.85,6.48,6.72c6.83,2.93,10.85,4.85,12.08,5.76c4.32,3.2,6.48,7.79,6.48,13.76
			c0,4.64-1.67,8.6-5,11.88c-3.33,3.28-7.21,4.92-11.64,4.92c-3.73,0-7.23-1.17-10.48-3.52c-3.52-2.56-5.73-5.81-6.64-9.76l6.56-2.8
			c0.53,2.67,1.72,4.85,3.56,6.56c1.84,1.71,4.09,2.56,6.76,2.56c2.67,0,5.01-0.99,7.04-2.96c2.03-1.97,3.04-4.27,3.04-6.88
			c0-4.59-2.16-7.97-6.48-10.16c-4.05-1.6-8.08-3.23-12.08-4.88c-4.32-2.35-6.48-6.05-6.48-11.12c0-4.05,1.29-7.51,3.88-10.36
			c2.59-2.85,6.04-4.28,10.36-4.28c2.93,0,5.59,0.77,7.96,2.32c2.37,1.55,4.01,3.65,4.92,6.32L505.33,1006.4z"/>
		<path d="M517.73,1002.16v-6.88h37.68v6.88h-11.52c-0.64,0-1.29,0.01-1.96,0.04c-0.67,0.03-1.12,0.19-1.36,0.48
			c-0.24,0.29-0.36,0.79-0.36,1.48c0,0.48,0,0.83,0,1.04v46.96h-7.84v-46.88c0-1.28-0.13-2.08-0.4-2.4
			c-0.27-0.32-0.61-0.53-1.04-0.64c-0.27-0.05-0.72-0.08-1.36-0.08H517.73z"/>
		<path d="M565.81,1032.32v19.84h-6.32v-38.4c0-5.44,1.61-9.88,4.84-13.32c3.23-3.44,7.32-5.16,12.28-5.16
			c4.64,0,8.56,1.71,11.76,5.12c3.2,3.41,4.8,7.44,4.8,12.07c0,5.06-1.65,9.09-4.96,12.07c-2.4,2.19-5.49,3.71-9.28,4.56
			c-0.43,0.05-0.64,0.27-0.64,0.64c0,0.32,0.18,0.79,0.53,1.4c0.35,0.61,0.88,1.4,1.58,2.36l13.55,18.54l-7.74,0.12l-16.56-21.84
			c-0.8-1.17-1.33-1.87-1.6-2.08c-0.48-0.37-0.99-0.51-1.52-0.4c-0.27,0.05-0.45,0.39-0.56,1c-0.11,0.61-0.16,1.29-0.16,2.04
			C565.81,1031.57,565.81,1032.05,565.81,1032.32z M576.89,1001.84c-2.87,0-5.31,1.07-7.33,3.2c-2.02,2.13-3.03,4.64-3.03,7.52
			c0,2.93,0.98,5.39,2.95,7.36c1.97,1.97,4.49,2.96,7.57,2.96c2.76,0,5.03-1.08,6.81-3.24c1.78-2.16,2.67-4.71,2.67-7.64
			c0-2.72-0.93-5.09-2.79-7.12C581.88,1002.85,579.6,1001.84,576.89,1001.84z"/>
		<path d="M598.37,1052.16v-57.28h7.76v57.28H598.37z"/>
		<path d="M620.85,1036.66v15.5h-7.04v-38.24c0-5.33,1.76-9.84,5.28-13.52c3.52-3.68,7.87-5.52,13.04-5.52
			c5.07,0,9.41,1.87,13.04,5.6c3.63,3.73,5.44,8.19,5.44,13.36v38.32h-6.88v-14.08c0-1.01,0-1.76,0-2.24c0-0.64-0.05-1.2-0.16-1.68
			c-0.11-0.48-0.36-0.88-0.76-1.2c-0.4-0.32-1.03-0.48-1.88-0.48c-0.69,0-1.23,0-1.6,0h-14.88c-0.75,0-1.25,0.03-1.52,0.08
			c-0.43,0.11-0.88,0.36-1.36,0.76c-0.48,0.4-0.72,1.17-0.72,2.29C620.85,1036.09,620.85,1036.44,620.85,1036.66z M643.41,1021.28
			v-7.84c0-3.31-1.04-6.09-3.13-8.36c-2.09-2.27-4.84-3.4-8.27-3.4c-3.27,0-5.9,1.28-7.91,3.84c-2.01,2.56-3.01,5.57-3.01,9.04v7.12
			c0,0.69,0,1.2,0,1.52c0,0.75,0.18,1.35,0.56,1.8c0.37,0.45,0.85,0.75,1.43,0.88c0.58,0.13,1.3,0.2,2.15,0.2h13.47
			c0.53,0,0.9,0,1.12,0c0.8,0,1.3-0.03,1.51-0.08c0.48-0.11,0.9-0.37,1.28-0.8c0.21-0.21,0.4-0.51,0.56-0.88s0.24-0.85,0.24-1.44
			C643.41,1022.19,643.41,1021.65,643.41,1021.28z"/>
		<path d="M658.45,1052.08v-56.8h7.76v46.88c0,1.22,0.08,2,0.24,2.32s0.69,0.48,1.6,0.48c0.64,0,1.09,0,1.36,0h15.84v7.12H658.45z"
			/>
		<path d="M728.29,1006.4c-1.12-1.97-2.15-3.28-3.08-3.92c-0.93-0.64-2.25-0.96-3.96-0.96c-2.08,0-3.84,0.83-5.28,2.48
			c-1.44,1.65-2.16,3.55-2.16,5.68c0,2.61,2.16,4.85,6.48,6.72c6.83,2.93,10.85,4.85,12.08,5.76c4.32,3.2,6.48,7.79,6.48,13.76
			c0,4.64-1.67,8.6-5,11.88c-3.33,3.28-7.21,4.92-11.64,4.92c-3.73,0-7.23-1.17-10.48-3.52c-3.52-2.56-5.73-5.81-6.64-9.76l6.56-2.8
			c0.53,2.67,1.72,4.85,3.56,6.56c1.84,1.71,4.09,2.56,6.76,2.56c2.67,0,5.01-0.99,7.04-2.96c2.03-1.97,3.04-4.27,3.04-6.88
			c0-4.59-2.16-7.97-6.48-10.16c-4.05-1.6-8.08-3.23-12.08-4.88c-4.32-2.35-6.48-6.05-6.48-11.12c0-4.05,1.29-7.51,3.88-10.36
			c2.59-2.85,6.04-4.28,10.36-4.28c2.93,0,5.59,0.77,7.96,2.32c2.37,1.55,4.01,3.65,4.92,6.32L728.29,1006.4z"/>
		<path d="M740.77,1047.28c0-1.39,0.35-2.55,1.04-3.48c0.69-0.93,1.73-1.4,3.12-1.4c1.23,0,2.32,0.39,3.28,1.16s1.44,1.77,1.44,3
			s-0.33,2.28-1,3.16s-1.59,1.4-2.76,1.56c-1.33,0.21-2.52-0.08-3.56-0.88C741.29,1049.6,740.77,1048.56,740.77,1047.28z"/>
		<path d="M761.57,1036.66v15.5h-7.04v-38.24c0-5.33,1.76-9.84,5.28-13.52c3.52-3.68,7.87-5.52,13.04-5.52
			c5.07,0,9.41,1.87,13.04,5.6c3.63,3.73,5.44,8.19,5.44,13.36v38.32h-6.88v-14.08c0-1.01,0-1.76,0-2.24c0-0.64-0.05-1.2-0.16-1.68
			c-0.11-0.48-0.36-0.88-0.76-1.2c-0.4-0.32-1.03-0.48-1.88-0.48c-0.69,0-1.23,0-1.6,0h-14.88c-0.75,0-1.25,0.03-1.52,0.08
			c-0.43,0.11-0.88,0.36-1.36,0.76c-0.48,0.4-0.72,1.17-0.72,2.29C761.57,1036.09,761.57,1036.44,761.57,1036.66z M784.13,1021.28
			v-7.84c0-3.31-1.04-6.09-3.13-8.36c-2.09-2.27-4.84-3.4-8.27-3.4c-3.27,0-5.9,1.28-7.91,3.84c-2.01,2.56-3.01,5.57-3.01,9.04v7.12
			c0,0.69,0,1.2,0,1.52c0,0.75,0.18,1.35,0.56,1.8c0.37,0.45,0.85,0.75,1.43,0.88c0.58,0.13,1.3,0.2,2.15,0.2h13.47
			c0.53,0,0.9,0,1.12,0c0.8,0,1.3-0.03,1.51-0.08c0.48-0.11,0.9-0.37,1.28-0.8c0.21-0.21,0.4-0.51,0.56-0.88s0.24-0.85,0.24-1.44
			C784.13,1022.19,784.13,1021.65,784.13,1021.28z"/>
		<path d="M796.05,1047.28c0-1.39,0.35-2.55,1.04-3.48c0.69-0.93,1.73-1.4,3.12-1.4c1.23,0,2.32,0.39,3.28,1.16s1.44,1.77,1.44,3
			s-0.33,2.28-1,3.16s-1.59,1.4-2.76,1.56c-1.33,0.21-2.52-0.08-3.56-0.88C796.57,1049.6,796.05,1048.56,796.05,1047.28z"/>
		<path d="M827.73,1052.16v-57.28c0.59,0,1.01,0,1.28,0c0.53,0,0.93,0,1.2,0c0.48,0,0.83,0,1.04,0c1.01,0,1.85,0,2.52,0
			c0.67,0,1.29,0,1.88,0c8.32,0,15.44,2.59,21.36,7.77c6.19,5.45,9.28,12.26,9.28,20.43c0,9.93-3.52,17.57-10.56,22.91
			c-5.39,4.11-11.36,6.17-17.92,6.17H827.73z M835.33,1042.79c0,1.82,1.25,2.73,3.76,2.73c4.11,0,8.27-1.92,12.48-5.77
			c4.96-4.54,7.44-10.12,7.44-16.75c0-5.98-2.59-11.14-7.76-15.47c-4.43-3.74-8.67-5.61-12.72-5.61c-2.13,0-3.2,0.75-3.2,2.24
			V1042.79z"/>
		<path d="M871.81,1052.24v-56.96h26.16v6.56h-15.5c-0.43,0-0.75,0-0.96,0c-1.23,0-1.98,0.16-2.25,0.48
			c-0.27,0.32-0.4,0.81-0.4,1.45c0,0.43,0,0.75,0,0.96v9.73c0,1.23,0.19,2.08,0.56,2.53c0.37,0.46,1.01,0.68,1.92,0.68
			c0.37,0,0.64,0,0.8,0h14.8v6.88h-15.12c-0.64,0-1.09,0.03-1.36,0.08c-0.37,0.05-0.73,0.27-1.08,0.64
			c-0.35,0.37-0.52,0.96-0.52,1.76c0,0.32,0,0.56,0,0.72v13.92l0.16,2.64c0.11,0.16,0.36,0.29,0.76,0.4
			c0.4,0.11,1.06,0.16,1.97,0.16h16.87v7.36H871.81z"/>
		<path d="M958.85,1044v6.96c-3.15,1.17-6.32,1.76-9.52,1.76c-7.95,0-14.72-2.83-20.32-8.48c-5.6-5.65-8.4-12.45-8.4-20.4
			c0-7.79,2.81-14.44,8.44-19.96c5.63-5.52,12.36-8.28,20.2-8.28c3.41,0,6.64,0.48,9.68,1.44v7.12c-3.04-1.44-6.27-2.16-9.68-2.16
			c-6.03,0-11.17,2.16-15.44,6.48c-4.27,4.32-6.4,9.52-6.4,15.6c0,6.03,2.13,11.23,6.4,15.6c4.27,4.37,9.41,6.56,15.44,6.56
			c1.81,0,3.52-0.2,5.12-0.6C955.97,1045.24,957.46,1044.69,958.85,1044z"/>
		<path d="M962.53,1047.28c0-1.39,0.35-2.55,1.04-3.48c0.69-0.93,1.73-1.4,3.12-1.4c1.23,0,2.32,0.39,3.28,1.16s1.44,1.77,1.44,3
			s-0.33,2.28-1,3.16s-1.59,1.4-2.76,1.56c-1.33,0.21-2.52-0.08-3.56-0.88C963.05,1049.6,962.53,1048.56,962.53,1047.28z"/>
		<path d="M994.77,1031.36c0.48,0,1.55-2.11,3.2-6.32c1.17-3.04,2.92-7.87,5.24-14.48c2.32-6.61,4.17-11.71,5.56-15.28h7.76
			l-22,57.42l-21.76-57.42h8.16c2.99,8.69,5.41,15.71,7.28,21.04C991.78,1026.35,993.97,1031.36,994.77,1031.36z"/>
		<path d="M1017.09,1047.28c0-1.39,0.35-2.55,1.04-3.48c0.69-0.93,1.73-1.4,3.12-1.4c1.23,0,2.32,0.39,3.28,1.16s1.44,1.77,1.44,3
			s-0.33,2.28-1,3.16s-1.59,1.4-2.76,1.56c-1.33,0.21-2.52-0.08-3.56-0.88C1017.61,1049.6,1017.09,1048.56,1017.09,1047.28z"/>
	</g>
</g>
<g id="Circulo">
	
		<ellipse transform="matrix(0.7071 -0.7071 0.7071 0.7071 -197.7486 516.6413)" class="st0" cx="524.77" cy="497.02" rx="453.02" ry="453.02"/>
</g>
<g id="Lagalm">
	<g>
		<g>
			<path class="st1" d="M456.06,591.21c-17.51,0-32.48,6.04-44.9,18.11c-12.42,12.08-18.63,26.72-18.63,43.93
				c0,18.09,5.71,33.18,17.14,45.26c11.43,12.08,26.77,18.12,46.02,18.12c7.5,0,15.36-1.28,23.59-3.83s12.25-5.5,12.07-8.84v18.67
				c0,12.35-4.5,23.1-13.51,32.24c-9.01,9.14-19.55,13.71-31.64,13.71c-8.74,0-16.24-1.52-22.51-4.55
				c-6.27-3.04-12.52-8.7-18.77-16.98c-1.8-2.39-3.6-4.77-5.39-7.16v37.46c3.89,3.44,7.93,6.18,12.11,8.22
				c9.67,4.73,21.19,7.09,34.56,7.09c20.13,0,37.33-7.02,51.61-21.06c14.28-14.04,21.42-30.71,21.42-50v-66.1
				c0-19.45-5.97-35.03-17.9-46.73C489.38,597.06,474.29,591.21,456.06,591.21z M482.92,680.37c-7.31,7.28-16.28,10.93-26.9,10.93
				c-10.29,0-19.01-3.48-26.16-10.44c-7.15-6.96-10.72-15.92-10.72-26.89c0-11.1,3.68-20.32,11.05-27.66
				c7.36-7.34,15.97-11.02,25.83-11.02c10.43,0,19.34,3.69,26.75,11.08c7.41,7.39,11.11,16.22,11.11,26.51
				C493.88,663.92,490.23,673.08,482.92,680.37z M636.07,606.74c-11.63-10.35-25.5-15.53-41.61-15.53
				c-17.62,0-32.66,6.03-45.13,18.09c-12.47,12.06-18.71,26.71-18.71,43.95c0,17.43,6.24,32.35,18.73,44.77
				c12.48,12.41,27.58,18.62,45.29,18.62c11.32,0,21.89-2.74,31.7-8.22c9.81-5.48,16.35-12.07,19.63-19.77
				c3.58,8.84,7.15,17.68,10.73,26.53c9.69,0.24,19.39,0.49,29.08,0.73c-9.55-23.72-19.11-47.43-28.66-71.14
				C654.71,629.77,647.7,617.09,636.07,606.74z M621.91,680.9c-7.42,7.78-16.51,11.67-27.27,11.67c-10.21,0-19-3.69-26.37-11.07
				c-7.36-7.38-11.05-16.62-11.05-27.7s3.72-20.27,11.16-27.56c7.44-7.29,16.19-10.94,26.25-10.94c10.41,0,19.42,3.64,27.01,10.92
				c7.6,7.28,11.39,16.12,11.39,26.52C633.04,663.72,629.33,673.11,621.91,680.9z M344.69,606.74
				c-11.63-10.35-25.5-15.53-41.61-15.53c-17.62,0-32.66,6.03-45.13,18.09c-12.47,12.06-18.71,26.71-18.71,43.95
				c0,17.43,6.24,32.35,18.73,44.77c12.48,12.41,27.58,18.62,45.29,18.62c11.32,0,21.89-2.74,31.7-8.22
				c9.81-5.48,16.35-12.07,19.63-19.77c3.58,8.84,7.15,17.68,10.73,26.53c9.69,0.24,19.39,0.49,29.08,0.73
				c-9.55-23.72-19.11-47.43-28.66-71.14C363.33,629.77,356.32,617.09,344.69,606.74z M330.53,680.9
				c-7.42,7.78-16.51,11.67-27.27,11.67c-10.21,0-19-3.69-26.37-11.07c-7.36-7.38-11.05-16.62-11.05-27.7s3.72-20.27,11.16-27.56
				c7.44-7.29,16.19-10.94,26.25-10.94c10.41,0,19.42,3.64,27.01,10.92c7.59,7.28,11.39,16.12,11.39,26.52
				C341.66,663.72,337.95,673.11,330.53,680.9z M898.25,604.94c-9.98-9.15-21.92-13.73-35.8-13.73c-17.05,0-29.84,5.52-38.36,16.55
				c-2.92-4.55-7.88-8.45-14.89-11.69c-7.01-3.24-14.44-4.86-22.28-4.86c-13.65,0-25.57,4.12-35.76,12.37
				c-10.19,8.25-15.29,18.88-15.29,31.89v81.16h25.34v-74.81c0-7.49,2.65-13.79,7.94-18.89c5.29-5.1,11.28-7.65,17.95-7.65
				c7.14,0,13.05,2.88,17.75,8.63c4.69,5.75,7.04,12.6,7.04,20.53v72.19h25.34v-70.19c0-7.85,2.51-14.58,7.53-20.2
				c5.02-5.62,10.92-8.42,17.71-8.42c7.35,0,13.43,2.83,18.23,8.48c4.8,5.65,7.21,12.37,7.21,20.14v70.19h25.34v-78.63
				C913.22,625.12,908.23,614.09,898.25,604.94z M688.99,716.63h26.6V519h-26.6V716.63z M169.96,687.3c-0.26-0.53-0.4-2.78-0.4-6.75
				V519h-32.94v197.63h96.74V687.5h-61.44C170.68,687.5,170.02,687.43,169.96,687.3z"/>
		</g>
	</g>
</g>
<g id="_xAE_">
	<path class="st2" d="M984.3,663.92c3.63,0,7.07,0.67,10.31,2.02c3.25,1.35,6.13,3.31,8.66,5.88c2.48,2.5,4.38,5.36,5.7,8.58
		c1.32,3.22,1.98,6.59,1.98,10.1c0,3.63-0.66,7.04-1.98,10.22c-1.32,3.19-3.25,6.01-5.77,8.46c-2.62,2.55-5.56,4.5-8.82,5.86
		c-3.26,1.36-6.62,2.04-10.08,2.04c-3.54,0-6.91-0.68-10.12-2.04c-3.21-1.36-6.09-3.33-8.64-5.93c-2.53-2.55-4.45-5.42-5.77-8.6
		c-1.32-3.18-1.98-6.52-1.98-10.01c0-3.51,0.69-6.9,2.07-10.19c1.38-3.28,3.37-6.23,5.97-8.86c2.43-2.48,5.21-4.35,8.35-5.63
		C977.32,664.55,980.69,663.92,984.3,663.92z M1007.49,690.75c0-3.21-0.56-6.22-1.68-9.02c-1.12-2.8-2.75-5.27-4.89-7.41
		c-2.22-2.23-4.73-3.92-7.53-5.08c-2.81-1.16-5.8-1.74-8.98-1.74c-3.13,0-6.08,0.56-8.85,1.69c-2.77,1.12-5.19,2.74-7.26,4.85
		c-2.26,2.28-4.01,4.84-5.22,7.69c-1.22,2.85-1.82,5.79-1.82,8.81c0,2.99,0.58,5.88,1.75,8.64c1.17,2.77,2.85,5.25,5.04,7.46
		c2.17,2.21,4.65,3.9,7.46,5.08c2.81,1.19,5.7,1.78,8.69,1.78c3.13,0,6.1-0.58,8.9-1.73c2.81-1.15,5.36-2.83,7.68-5.04
		c2.17-2.11,3.83-4.53,4.98-7.28C1006.91,696.72,1007.49,693.82,1007.49,690.75z M984.98,674.87c4.18,0,7.33,0.69,9.43,2.08
		c2.1,1.39,3.16,3.45,3.16,6.2c0,2.14-0.61,3.93-1.81,5.35c-1.21,1.42-2.91,2.35-5.11,2.78l6.77,13.81h-6.42l-6.1-12.91h-5.56v12.91
		h-5.65v-30.21H984.98z M983.98,678.56h-4.63v10.03h4.77c2.7,0,4.64-0.38,5.81-1.14c1.17-0.76,1.76-1.98,1.76-3.68
		c0-1.83-0.61-3.16-1.83-3.98C988.64,678.97,986.68,678.56,983.98,678.56z"/>
</g>
<g id="Guias">
</g>
</svg>
